# xmcd CD database file
#
# Track frame offsets:
#	150
#	17653
#	32452
#	49383
#	56905
#	73001
#	80198
#	104895
#	122670
#	148303
#	166278
#	189104
#	215314
#
# Disc length: 3083 seconds
#
# Revision: 0
# Processed by: cddbd v1.5.1PL0 Copyright (c) Steve Scherf et al.
# Submitted via: CDex 1.51
#
DISCID=c20c090d
DTITLE=Big Joe Manfra - Dois
DYEAR=2004
DGENRE=Blues
TTITLE0=I'll Hurt You
TTITLE1=All Over Now
TTITLE2=La Grange
TTITLE3=Little Ol'Groove
TTITLE4=Pretty Sad Girl
TTITLE5=Funk'n'Crazy
TTITLE6=I'm Ready
TTITLE7=Não Volte Aqui
TTITLE8=Wrong Life Blues
TTITLE9=Crazy Little Thing Called Love
TTITLE10=Jogo de Dado
TTITLE11=Hoochie Coochie Man
TTITLE12=Já É Blues!!! (partes I e II)
EXTD=YEAR: 2004
EXTT0=
EXTT1=
EXTT2=
EXTT3=
EXTT4=
EXTT5=
EXTT6=
EXTT7=
EXTT8=
EXTT9=
EXTT10=
EXTT11=
EXTT12=
PLAYORDER=
